<svg xmlns="http://www.w3.org/2000/svg" xmlns:xlink="http://www.w3.org/1999/xlink" width="29" height="27" viewBox="0 0 29 27">
  <defs>
    <clipPath id="clip-path">
      <rect id="Rectangle_143" data-name="Rectangle 143" width="29" height="27" transform="translate(-0.405 -0.411)" fill="#fff"/>
    </clipPath>
  </defs>
  <g id="Group_225" data-name="Group 225" transform="translate(0.405 0.411)">
    <g id="Group_224" data-name="Group 224" transform="translate(0 0)" clip-path="url(#clip-path)">
      <path id="Path_34" data-name="Path 34" d="M1342.663,146.111l1.86-15.274h1.461v1.992a1.328,1.328,0,1,0,2.656,0v-1.992h6.641v1.992a1.328,1.328,0,1,0,2.656,0v-1.992h1.461l1.859,15.274Zm9.3-20.055a3.289,3.289,0,0,1,3.121,2.125h-6.309A3.352,3.352,0,0,1,1351.96,126.056Zm11.953,19.922-2.125-17.8h-3.918a6.043,6.043,0,0,0-11.82,0h-3.919l-2.125,17.8a2.4,2.4,0,0,0,.6,1.992,2.72,2.72,0,0,0,2.058.8h18.594a2.484,2.484,0,0,0,2.059-.863A2.421,2.421,0,0,0,1363.913,145.979Z" transform="translate(-1337.663 -123.249)" fill="#fff"/>
    </g>
  </g>
</svg>
