<svg id="Ebene_1" data-name="Ebene 1" xmlns="http://www.w3.org/2000/svg" viewBox="0 0 481.02 147.54"><defs><style>.cls-1{fill:#dbc6ac;}.cls-2{fill:#fff;}</style></defs><rect class="cls-1" x="15.67" y="16.72" width="449.69" height="114.1" rx="12.38"/><circle class="cls-2" cx="415.58" cy="60" r="5.95"/><circle class="cls-2" cx="421.96" cy="85.62" r="12.33"/><path class="cls-2" d="M55.78,47.45A2.8,2.8,0,0,0,53,50.23V94.85a2.74,2.74,0,0,0,.78,2,2.57,2.57,0,0,0,1.93.81,2.77,2.77,0,0,0,2.78-2.78V50.23a2.77,2.77,0,0,0-.74-2A2.54,2.54,0,0,0,55.78,47.45Z"/><path class="cls-2" d="M81.68,51a4,4,0,0,0-2.5.68,2.48,2.48,0,0,0-.89,2.1v1a2.58,2.58,0,0,0,.82,2.1,4.9,4.9,0,0,0,5,0,2.51,2.51,0,0,0,.85-2.1v-1a2.58,2.58,0,0,0-.81-2.1A3.79,3.79,0,0,0,81.68,51Z"/><path class="cls-2" d="M81.68,62a2.66,2.66,0,0,0-2,.81,2.75,2.75,0,0,0-.77,2v30a2.73,2.73,0,0,0,.77,2,2.66,2.66,0,0,0,2,.81,2.59,2.59,0,0,0,1.94-.81,2.74,2.74,0,0,0,.78-2v-30a2.76,2.76,0,0,0-.78-2A2.59,2.59,0,0,0,81.68,62Z"/><path class="cls-2" d="M129.73,66.24a15.46,15.46,0,0,0-5.15-3.4,16.41,16.41,0,0,0-6.07-1.15,15.51,15.51,0,0,0-8,2.21,16.67,16.67,0,0,0-6.11,6.37,20.4,20.4,0,0,0-2.33,10.07,18.6,18.6,0,0,0,2.27,9.32A16.37,16.37,0,0,0,110.71,96a18.87,18.87,0,0,0,9.49,2.31,15.82,15.82,0,0,0,6.92-1.56,16.42,16.42,0,0,0,5.15-3.66,2.7,2.7,0,0,0,1.15-2.1,2.21,2.21,0,0,0-.67-1.63,2.33,2.33,0,0,0-1.7-.68,3,3,0,0,0-1.69.61,14.8,14.8,0,0,1-2.17,1.87,12.37,12.37,0,0,1-3,1.52,12.56,12.56,0,0,1-4.17.61,12.36,12.36,0,0,1-6.58-1.73A12,12,0,0,1,109,86.85a14,14,0,0,1-1.54-5.9H132a2.82,2.82,0,0,0,1.9-.71,2.5,2.5,0,0,0,.88-1.8,17.65,17.65,0,0,0-1.42-6.92A17.25,17.25,0,0,0,129.73,66.24Zm-18.85,3.59a10.23,10.23,0,0,1,3.59-2.31,11.63,11.63,0,0,1,4-.74A11,11,0,0,1,127.15,71,9,9,0,0,1,129,75.73v.54H107.7a14.36,14.36,0,0,1,.63-2.37A11.11,11.11,0,0,1,110.88,69.83Z"/><path class="cls-2" d="M178.31,64A15,15,0,0,0,170,61.69a13.27,13.27,0,0,0-4.44.75,14.93,14.93,0,0,0-3.87,2,13.36,13.36,0,0,0-2.91,2.85c-.24.32-.45.64-.65,1v-18a2.81,2.81,0,0,0-.74-2,2.73,2.73,0,0,0-3.9,0,2.72,2.72,0,0,0-.78,2v45a2.71,2.71,0,0,0,.78,2,2.62,2.62,0,0,0,1.93.78,2.55,2.55,0,0,0,2-.81,2.85,2.85,0,0,0,.74-2v-3l.28.38a15.07,15.07,0,0,0,3,2.88,15.4,15.4,0,0,0,4,2.1,14,14,0,0,0,4.72.78,14.41,14.41,0,0,0,8.17-2.41,17,17,0,0,0,5.76-6.54,20.32,20.32,0,0,0,2.14-9.49,19.93,19.93,0,0,0-2.14-9.43A16.59,16.59,0,0,0,178.31,64Zm1.16,22.68a12.21,12.21,0,0,1-4.07,4.82,10.29,10.29,0,0,1-6,1.76,10.43,10.43,0,0,1-6-1.76,11.81,11.81,0,0,1-4.07-4.82,15.67,15.67,0,0,1-1.46-6.84,15.06,15.06,0,0,1,1.46-6.75,11.67,11.67,0,0,1,4.07-4.68,10.64,10.64,0,0,1,6-1.73,10.49,10.49,0,0,1,6,1.73,12.06,12.06,0,0,1,4.07,4.68A14.8,14.8,0,0,1,181,79.87,15.4,15.4,0,0,1,179.47,86.71Z"/><path class="cls-2" d="M245.58,62A2.42,2.42,0,0,0,243,63.73l-8.35,24.38L227.27,70a2.52,2.52,0,0,0-.85-1.25,2.45,2.45,0,0,0-1.52-.44A2.63,2.63,0,0,0,222.32,70L215.2,88.39l-8.47-24.66a2.23,2.23,0,0,0-.95-1.36,2.88,2.88,0,0,0-1.49-.41,2.62,2.62,0,0,0-2,.82,2.79,2.79,0,0,0-.75,2,3,3,0,0,0,.21,1.09l10.58,30a2.75,2.75,0,0,0,1.15,1.39,2.41,2.41,0,0,0,1.69.37,2.61,2.61,0,0,0,2.38-1.76l7.12-19.49,7.8,19.49a2.69,2.69,0,0,0,2.37,1.76,2.3,2.3,0,0,0,1.66-.37,2.85,2.85,0,0,0,1.12-1.39l10.44-30a1.14,1.14,0,0,0,.17-.51,4,4,0,0,0,0-.58,2.69,2.69,0,0,0-.78-2A2.61,2.61,0,0,0,245.58,62Z"/><path class="cls-2" d="M291.12,66.24a15.5,15.5,0,0,0-5.16-3.4,16.34,16.34,0,0,0-6.07-1.15,15.54,15.54,0,0,0-8,2.21,16.65,16.65,0,0,0-6.1,6.37,20.29,20.29,0,0,0-2.34,10.07,18.7,18.7,0,0,0,2.27,9.32A16.44,16.44,0,0,0,272.09,96a18.94,18.94,0,0,0,9.5,2.31,15.78,15.78,0,0,0,6.91-1.56,16.47,16.47,0,0,0,5.16-3.66,2.7,2.7,0,0,0,1.15-2.1,2.22,2.22,0,0,0-.68-1.63,2.29,2.29,0,0,0-1.69-.68,3,3,0,0,0-1.7.61,13.82,13.82,0,0,1-2.17,1.87,12.3,12.3,0,0,1-3,1.52,12.56,12.56,0,0,1-4.17.61,12.36,12.36,0,0,1-6.58-1.73,12,12,0,0,1-4.44-4.71,14,14,0,0,1-1.54-5.9h24.56a2.84,2.84,0,0,0,1.9-.71,2.54,2.54,0,0,0,.88-1.8,17.65,17.65,0,0,0-1.43-6.92A17,17,0,0,0,291.12,66.24Zm-18.86,3.59a10.27,10.27,0,0,1,3.6-2.31,11.61,11.61,0,0,1,4-.74A11,11,0,0,1,288.54,71a8.88,8.88,0,0,1,1.86,4.78v.54H269.09a13.44,13.44,0,0,1,.63-2.37A11.09,11.09,0,0,1,272.26,69.83Z"/><path class="cls-2" d="M334,62.4a5.51,5.51,0,0,0-2.74-.71,11.44,11.44,0,0,0-4.62.92,12.25,12.25,0,0,0-3.73,2.51,14.4,14.4,0,0,0-2.67,3.59,14.75,14.75,0,0,0-.65,1.41V65.35a2.81,2.81,0,0,0-.74-2,2.83,2.83,0,0,0-3.9,0,2.71,2.71,0,0,0-.78,2v29.5a2.74,2.74,0,0,0,.78,2,2.7,2.7,0,0,0,3.86,0,2.74,2.74,0,0,0,.78-2V78.37a12.17,12.17,0,0,1,.85-4.57,13.56,13.56,0,0,1,2.24-3.8,11.08,11.08,0,0,1,3.05-2.61,6.72,6.72,0,0,1,3.36-1,4.4,4.4,0,0,1,2,.41,3.75,3.75,0,0,0,1.69.4,2.37,2.37,0,0,0,1.7-.71,2.81,2.81,0,0,0,.75-2.14A2.22,2.22,0,0,0,334,62.4Z"/><path class="cls-2" d="M379.91,92.88,366.14,78.13l12.69-11.08a2.71,2.71,0,0,0,1.08-2,2.61,2.61,0,0,0-.78-1.79,2.43,2.43,0,0,0-1.86-.85,2.84,2.84,0,0,0-2,.81l-17.83,16V50.23a2.72,2.72,0,0,0-.78-2,2.56,2.56,0,0,0-1.94-.82,2.63,2.63,0,0,0-2,.82,2.72,2.72,0,0,0-.78,2V94.85a2.74,2.74,0,0,0,.78,2,2.66,2.66,0,0,0,2,.81,2.59,2.59,0,0,0,1.94-.81,2.74,2.74,0,0,0,.78-2V85.71L362,81.76l14,14.92a2.64,2.64,0,0,0,2,.88,3,3,0,0,0,1.77-.71,2.29,2.29,0,0,0,1-1.93A2.94,2.94,0,0,0,379.91,92.88Z"/></svg>