<svg xmlns="http://www.w3.org/2000/svg" width="17.658" height="17.658" viewBox="0 0 17.658 17.658">
  <path id="Path_107" data-name="Path 107" d="M576.378,1822.268a8.852,8.852,0,1,1-2.581,6.247A8.509,8.509,0,0,1,576.378,1822.268Zm1.211,11.284a7.132,7.132,0,1,0-2.083-5.037A6.862,6.862,0,0,0,577.588,1833.553Zm7.85-1.725a.385.385,0,0,1-.606.106l-3.026-2.207a.437.437,0,0,1-.178-.355v-5.839a.377.377,0,0,1,.427-.427h1.139a.377.377,0,0,1,.428.427v5.055l2.385,1.709a.393.393,0,0,1,.071.6l-.641.927Z" transform="translate(-573.797 -1819.688)" fill="#393939"/>
</svg>
